HIERARCHY
ROOT root
{
	OFFSET 0.000000 0.000000 0.000000
	CHANNELS 6 Xposition Yposition Zposition Zrotation Yrotation Xrotation
	JOINT lhip
	{
		OFFSET 0.058581 -0.082280 -0.017664
		CHANNELS 3 Zrotation Yrotation Xrotation
		JOINT lknee
		{
			OFFSET 0.043451 -0.386469 0.008037
			CHANNELS 3 Zrotation Yrotation Xrotation
			JOINT lankle
			{
				OFFSET -0.014790 -0.426874 -0.037428
				CHANNELS 3 Zrotation Yrotation Xrotation
				JOINT ltoe
				{
					OFFSET 0.041054 -0.060286 0.122042
					CHANNELS 3 Zrotation Yrotation Xrotation
					End Site
					{
						OFFSET 0.000000 0.000000 0.000000
					}
				}
			}
		}
	}
	JOINT rhip
	{
		OFFSET -0.060310 -0.090513 -0.013543
		CHANNELS 3 Zrotation Yrotation Xrotation
		JOINT rknee
		{
			OFFSET -0.043257 -0.383688 -0.004843
			CHANNELS 3 Zrotation Yrotation Xrotation
			JOINT rankle
			{
				OFFSET 0.019056 -0.420046 -0.034562
				CHANNELS 3 Zrotation Yrotation Xrotation
				JOINT rtoe
				{
					OFFSET -0.034840 -0.062106 0.130323
					CHANNELS 3 Zrotation Yrotation Xrotation
					End Site
					{
						OFFSET 0.000000 0.000000 0.000000
					}
				}
			}
		}
	}
	JOINT lowerback
	{
		OFFSET 0.004439 0.124404 -0.038385
		CHANNELS 3 Zrotation Yrotation Xrotation
		JOINT upperback
		{
			OFFSET 0.004488 0.137956 0.026820
			CHANNELS 3 Zrotation Yrotation Xrotation
			JOINT chest
			{
				OFFSET -0.002265 0.056032 0.002855
				CHANNELS 3 Zrotation Yrotation Xrotation
				JOINT lowerneck
				{
					OFFSET -0.013390 0.211636 -0.033468
					CHANNELS 3 Zrotation Yrotation Xrotation
					JOINT upperneck
					{
						OFFSET 0.010113 0.088937 0.050410
						CHANNELS 3 Zrotation Yrotation Xrotation
						End Site
						{
							OFFSET 0.000000 0.000000 0.000000
						}
					}
				}
				JOINT lclavicle
				{
					OFFSET 0.071702 0.114000 -0.018898
					CHANNELS 3 Zrotation Yrotation Xrotation
					JOINT lshoulder
					{
						OFFSET 0.122921 0.045205 -0.019046
						CHANNELS 3 Zrotation Yrotation Xrotation
						JOINT lelbow
						{
							OFFSET 0.255332 -0.015649 -0.022946
							CHANNELS 3 Zrotation Yrotation Xrotation
							JOINT lwrist
							{
								OFFSET 0.265709 0.012698 -0.007375
								CHANNELS 3 Zrotation Yrotation Xrotation
								End Site
								{
									OFFSET 0.000000 0.000000 0.000000
								}
							}
						}
					}
				}
				JOINT rclavicle
				{
					OFFSET -0.082954 0.112472 -0.023707
					CHANNELS 3 Zrotation Yrotation Xrotation
					JOINT rshoulder
					{
						OFFSET -0.113228 0.046853 -0.008472
						CHANNELS 3 Zrotation Yrotation Xrotation
						JOINT relbow
						{
							OFFSET -0.260127 -0.014369 -0.031269
							CHANNELS 3 Zrotation Yrotation Xrotation
							JOINT rwrist
							{
								OFFSET -0.269108 0.006794 -0.006027
								CHANNELS 3 Zrotation Yrotation Xrotation
								End Site
								{
									OFFSET 0.000000 0.000000 0.000000
								}
							}
						}
					}
				}
			}
		}
	}
}
MOTION
Frames: 7
Frame Time: 0.033333
2.320318 0.673201 1.059171 -86.037010 -2.151962 114.357925 -5.356621 0.820526 -25.901161 -12.484623 -4.798073 37.959572 -1.240877 20.264086 -12.590765 0.000000 -0.000000 0.000000 -1.855139 3.739862 -45.254860 4.276548 -3.216068 80.009714 5.572268 -14.007467 -10.518791 0.000000 -0.000000 0.000000 1.040305 -1.922748 32.139756 -0.428527 -2.001239 -14.210187 2.378068 2.535746 5.675024 2.576725 -0.414614 5.137036 11.123075 4.537014 -22.535229 35.629427 -23.465712 -19.642667 36.216660 -0.157679 -21.861376 34.748711 -39.486659 -61.567692 21.376095 -13.561861 -0.342820 -36.040375 20.732346 -27.966971 -1.802963 20.291280 -17.820831 -16.801449 28.111965 -20.792819 -5.857601 7.265034 10.273319 
2.236331 0.671557 1.039342 -84.410640 -3.618103 113.735348 -7.024927 1.009216 -30.317504 -11.111394 -1.302297 34.424697 -0.507371 19.072842 -16.491817 0.000000 -0.000000 0.000000 -4.955217 2.440545 -51.934969 3.581428 -5.451363 71.686289 6.926973 -12.951837 -13.828808 0.000000 -0.000000 0.000000 2.257596 -2.963159 37.950186 -0.622308 -1.812521 -13.610836 2.833161 2.437703 4.855513 1.916739 -0.906409 2.572352 11.789821 3.421392 -22.822494 33.100381 -24.006598 -19.364781 35.325952 -1.691412 -22.347292 36.025111 -42.308102 -61.023057 21.392104 -14.998014 0.815790 -33.958787 22.607906 -26.203591 -3.759186 20.531069 -20.348526 -17.136902 27.999123 -25.966515 -10.630852 8.299566 8.679739 
2.151003 0.671264 1.005590 -81.955067 -3.854449 114.055822 -7.768719 -0.047873 -35.968989 -9.786712 0.743324 36.343801 -0.957028 19.128279 -16.984376 0.000000 -0.000000 0.000000 -6.962348 1.473268 -58.028501 3.986516 -10.193706 59.386336 10.981196 -14.179434 -16.388335 0.000000 -0.000000 0.000000 4.775895 -5.118042 41.652968 -0.734336 -0.436991 -13.996163 2.970597 2.638962 5.650703 1.754237 -2.049588 0.307494 11.288307 3.327191 -24.073659 31.934602 -24.483752 -16.332924 33.815177 -1.392973 -22.445082 39.102822 -42.732919 -63.738802 21.483930 -15.928108 1.019403 -33.373127 23.807477 -24.316449 -4.755421 20.245524 -22.834266 -17.011169 26.947066 -30.728939 -11.824479 9.117507 8.877187 
2.014849 0.671981 0.931489 -80.922567 -3.256128 112.821562 -9.647839 -0.291936 -34.985165 -7.245734 2.806288 49.499056 0.681866 29.700791 -28.606692 0.000000 -0.000000 0.000000 -7.897850 -0.061520 -67.704428 1.909628 -18.079078 51.269800 9.095462 -19.922053 -16.464987 0.000000 -0.000000 0.000000 7.575479 -7.934757 48.468176 -1.834949 2.387633 -15.567865 3.790652 3.476646 7.665871 0.272289 -4.202635 -0.861181 12.191195 3.358135 -25.331105 33.921724 -23.745409 -14.002332 30.458473 0.310645 -23.948099 36.886265 -44.888971 -59.114012 22.098884 -14.754685 -2.016092 -37.275897 25.503007 -22.658365 -3.066711 18.632878 -24.733146 -14.427641 23.223737 -29.011763 -12.862943 7.888155 7.925005 
1.968126 0.672221 0.908747 -80.131304 -3.592749 113.512308 -10.130287 -0.250491 -31.180349 -7.459414 0.647941 50.151199 -0.420959 32.064654 -33.576557 0.000000 -0.000000 0.000000 -8.259244 -1.321261 -71.711293 0.916804 -20.928164 50.196653 8.729377 -21.667037 -16.275394 0.000000 -0.000000 0.000000 8.372892 -8.891711 50.105893 -1.835130 3.473106 -16.820960 4.278928 3.874356 8.946775 0.329755 -3.970543 -1.953294 11.945300 1.885228 -25.145512 35.530075 -23.120251 -13.186665 28.703810 2.008606 -24.171695 37.410314 -44.998454 -59.102094 21.596682 -15.764279 -2.400081 -38.715518 24.891602 -23.682703 -1.636472 19.199851 -24.964827 -13.901325 21.481027 -27.649414 -11.714268 7.445212 9.051758 
1.870672 0.674058 0.882594 -78.160257 -5.475364 118.274874 -10.038942 3.533057 -23.693321 -11.977567 -7.568494 43.659160 -1.988207 31.920707 -38.494760 0.000000 -0.000000 0.000000 -9.926795 -4.379192 -80.068222 1.726421 -23.284741 50.907094 8.729235 -21.420349 -14.605540 0.000000 -0.000000 0.000000 9.774576 -11.392852 52.677321 -2.208332 6.480316 -17.789743 5.016494 4.944351 8.604007 0.656126 -3.588271 -6.205679 11.470269 -0.863742 -25.047030 36.659163 -20.018599 -14.954925 27.863936 1.874397 -24.953758 37.358121 -45.873118 -56.658105 22.404111 -16.867859 -1.263972 -39.048099 24.396371 -24.319172 -1.605502 19.313840 -26.869746 -13.057739 19.560938 -27.945884 -12.543013 7.498999 10.020553 
1.765252 0.671600 0.875042 -76.204586 -12.160392 128.928111 -9.361614 4.341294 -17.635597 -15.148028 -15.341637 25.412754 -3.880415 24.275847 -27.524776 0.000000 -0.000000 0.000000 -15.874379 -10.935618 -86.937530 0.081677 -27.884839 57.205414 3.867157 -22.904740 -16.555189 0.000000 -0.000000 0.000000 13.045472 -13.224034 48.274724 -2.339397 8.192660 -17.048332 4.401250 6.229760 6.865860 0.105955 -3.636174 -8.086691 11.065208 -2.863633 -28.780159 36.811458 -17.604237 -16.730978 25.247155 0.420175 -24.815493 42.936965 -44.704161 -58.690284 24.570123 -17.779602 -0.211509 -36.502504 24.889410 -21.047765 -3.612709 17.493733 -29.735084 -14.516542 18.567416 -28.570004 -12.517307 7.794245 11.189937 
